<mxfile host="app.diagrams.net" modified="2023-09-04T19:32:38.461Z" agent="Mozilla/5.0 (Windows NT 10.0; Win64; x64) AppleWebKit/537.36 (KHTML, like Gecko) Chrome/116.0.0.0 Safari/537.36" etag="ELkTbL37uAao4Zsw3Auy" version="21.7.2" type="github">
  <diagram name="Page-1" id="wfJlDvsgTStBDbTHu9D8">
    <mxGraphModel dx="1434" dy="750" grid="1" gridSize="10" guides="1" tooltips="1" connect="1" arrows="1" fold="1" page="1" pageScale="1" pageWidth="1100" pageHeight="850" math="0" shadow="0">
      <root>
        <mxCell id="0" />
        <mxCell id="1" parent="0" />
        <mxCell id="qOsiP7DexmNMQrKXQggl-64" value="" style="shape=table;startSize=0;container=1;collapsible=0;childLayout=tableLayout;" parent="1" vertex="1">
          <mxGeometry x="360" y="123" width="490" height="260" as="geometry" />
        </mxCell>
        <mxCell id="qOsiP7DexmNMQrKXQggl-65" value="" style="shape=tableRow;horizontal=0;startSize=0;swimlaneHead=0;swimlaneBody=0;strokeColor=inherit;top=0;left=0;bottom=0;right=0;collapsible=0;dropTarget=0;fillColor=none;points=[[0,0.5],[1,0.5]];portConstraint=eastwest;" parent="qOsiP7DexmNMQrKXQggl-64" vertex="1">
          <mxGeometry width="490" height="260" as="geometry" />
        </mxCell>
        <mxCell id="qOsiP7DexmNMQrKXQggl-66" value="" style="shape=partialRectangle;html=1;whiteSpace=wrap;connectable=0;strokeColor=inherit;overflow=hidden;fillColor=none;top=0;left=0;bottom=0;right=0;pointerEvents=1;" parent="qOsiP7DexmNMQrKXQggl-65" vertex="1">
          <mxGeometry width="490" height="260" as="geometry">
            <mxRectangle width="490" height="260" as="alternateBounds" />
          </mxGeometry>
        </mxCell>
        <mxCell id="bFwccWIXfFiB8wJEmlYg-45" style="edgeStyle=orthogonalEdgeStyle;rounded=0;orthogonalLoop=1;jettySize=auto;html=1;exitX=1;exitY=0.5;exitDx=0;exitDy=0;" parent="qOsiP7DexmNMQrKXQggl-64" source="qOsiP7DexmNMQrKXQggl-65" target="qOsiP7DexmNMQrKXQggl-65" edge="1">
          <mxGeometry relative="1" as="geometry" />
        </mxCell>
        <mxCell id="qOsiP7DexmNMQrKXQggl-20" value="Data Source" style="shape=table;startSize=30;container=1;collapsible=0;childLayout=tableLayout;fontStyle=1" parent="1" vertex="1">
          <mxGeometry x="10" y="120" width="130" height="400" as="geometry" />
        </mxCell>
        <mxCell id="qOsiP7DexmNMQrKXQggl-21" value="" style="shape=tableRow;horizontal=0;startSize=0;swimlaneHead=0;swimlaneBody=0;strokeColor=inherit;top=0;left=0;bottom=0;right=0;collapsible=0;dropTarget=0;fillColor=none;points=[[0,0.5],[1,0.5]];portConstraint=eastwest;" parent="qOsiP7DexmNMQrKXQggl-20" vertex="1">
          <mxGeometry y="30" width="130" height="370" as="geometry" />
        </mxCell>
        <mxCell id="qOsiP7DexmNMQrKXQggl-22" value="" style="shape=partialRectangle;html=1;whiteSpace=wrap;connectable=0;strokeColor=inherit;overflow=hidden;fillColor=none;top=0;left=0;bottom=0;right=0;pointerEvents=1;" parent="qOsiP7DexmNMQrKXQggl-21" vertex="1">
          <mxGeometry width="130" height="370" as="geometry">
            <mxRectangle width="130" height="370" as="alternateBounds" />
          </mxGeometry>
        </mxCell>
        <mxCell id="qOsiP7DexmNMQrKXQggl-35" value="" style="edgeStyle=orthogonalEdgeStyle;rounded=0;orthogonalLoop=1;jettySize=auto;html=1;" parent="1" source="qOsiP7DexmNMQrKXQggl-23" target="qOsiP7DexmNMQrKXQggl-33" edge="1">
          <mxGeometry relative="1" as="geometry" />
        </mxCell>
        <mxCell id="qOsiP7DexmNMQrKXQggl-23" value="" style="sketch=0;outlineConnect=0;fontColor=#232F3E;gradientColor=none;fillColor=#3F8624;strokeColor=none;dashed=0;verticalLabelPosition=bottom;verticalAlign=top;align=center;html=1;fontSize=12;fontStyle=0;aspect=fixed;pointerEvents=1;shape=mxgraph.aws4.sensor;" parent="1" vertex="1">
          <mxGeometry x="55" y="160" width="70" height="78" as="geometry" />
        </mxCell>
        <mxCell id="qOsiP7DexmNMQrKXQggl-24" value="IoT Sensors" style="text;strokeColor=none;align=center;fillColor=none;html=1;verticalAlign=middle;whiteSpace=wrap;rounded=0;fontStyle=1" parent="1" vertex="1">
          <mxGeometry x="40" y="238" width="100" height="30" as="geometry" />
        </mxCell>
        <mxCell id="qOsiP7DexmNMQrKXQggl-41" value="" style="edgeStyle=orthogonalEdgeStyle;rounded=0;orthogonalLoop=1;jettySize=auto;html=1;" parent="1" source="qOsiP7DexmNMQrKXQggl-26" target="qOsiP7DexmNMQrKXQggl-36" edge="1">
          <mxGeometry relative="1" as="geometry" />
        </mxCell>
        <mxCell id="qOsiP7DexmNMQrKXQggl-26" value="" style="shadow=0;dashed=0;html=1;labelPosition=center;verticalLabelPosition=bottom;verticalAlign=top;align=center;outlineConnect=0;shape=mxgraph.veeam.3d.database;" parent="1" vertex="1">
          <mxGeometry x="61" y="280" width="58" height="62" as="geometry" />
        </mxCell>
        <mxCell id="qOsiP7DexmNMQrKXQggl-27" value="Historical Database" style="text;strokeColor=none;align=center;fillColor=none;html=1;verticalAlign=middle;whiteSpace=wrap;rounded=0;fontStyle=1" parent="1" vertex="1">
          <mxGeometry x="59" y="350" width="60" height="30" as="geometry" />
        </mxCell>
        <mxCell id="qOsiP7DexmNMQrKXQggl-42" value="" style="edgeStyle=orthogonalEdgeStyle;rounded=0;orthogonalLoop=1;jettySize=auto;html=1;" parent="1" source="qOsiP7DexmNMQrKXQggl-28" target="qOsiP7DexmNMQrKXQggl-39" edge="1">
          <mxGeometry relative="1" as="geometry" />
        </mxCell>
        <mxCell id="qOsiP7DexmNMQrKXQggl-28" value="" style="html=1;verticalLabelPosition=bottom;align=center;labelBackgroundColor=#ffffff;verticalAlign=top;strokeWidth=2;strokeColor=#0080F0;shadow=0;dashed=0;shape=mxgraph.ios7.icons.data;" parent="1" vertex="1">
          <mxGeometry x="60" y="400" width="42" height="50" as="geometry" />
        </mxCell>
        <mxCell id="qOsiP7DexmNMQrKXQggl-29" value="Third-Party Data" style="text;strokeColor=none;align=center;fillColor=none;html=1;verticalAlign=middle;whiteSpace=wrap;rounded=0;fontStyle=1" parent="1" vertex="1">
          <mxGeometry x="55" y="460" width="75" height="30" as="geometry" />
        </mxCell>
        <mxCell id="qOsiP7DexmNMQrKXQggl-30" value="Ingection" style="shape=table;startSize=30;container=1;collapsible=0;childLayout=tableLayout;fontStyle=1" parent="1" vertex="1">
          <mxGeometry x="200" y="120" width="130" height="400" as="geometry" />
        </mxCell>
        <mxCell id="qOsiP7DexmNMQrKXQggl-31" value="" style="shape=tableRow;horizontal=0;startSize=0;swimlaneHead=0;swimlaneBody=0;strokeColor=inherit;top=0;left=0;bottom=0;right=0;collapsible=0;dropTarget=0;fillColor=none;points=[[0,0.5],[1,0.5]];portConstraint=eastwest;" parent="qOsiP7DexmNMQrKXQggl-30" vertex="1">
          <mxGeometry y="30" width="130" height="370" as="geometry" />
        </mxCell>
        <mxCell id="qOsiP7DexmNMQrKXQggl-32" value="" style="shape=partialRectangle;html=1;whiteSpace=wrap;connectable=0;strokeColor=inherit;overflow=hidden;fillColor=none;top=0;left=0;bottom=0;right=0;pointerEvents=1;" parent="qOsiP7DexmNMQrKXQggl-31" vertex="1">
          <mxGeometry width="130" height="370" as="geometry">
            <mxRectangle width="130" height="370" as="alternateBounds" />
          </mxGeometry>
        </mxCell>
        <mxCell id="bFwccWIXfFiB8wJEmlYg-30" value="" style="edgeStyle=orthogonalEdgeStyle;rounded=0;orthogonalLoop=1;jettySize=auto;html=1;" parent="1" source="qOsiP7DexmNMQrKXQggl-33" target="bFwccWIXfFiB8wJEmlYg-4" edge="1">
          <mxGeometry relative="1" as="geometry" />
        </mxCell>
        <mxCell id="qOsiP7DexmNMQrKXQggl-33" value="" style="sketch=0;points=[[0,0,0],[0.25,0,0],[0.5,0,0],[0.75,0,0],[1,0,0],[0,1,0],[0.25,1,0],[0.5,1,0],[0.75,1,0],[1,1,0],[0,0.25,0],[0,0.5,0],[0,0.75,0],[1,0.25,0],[1,0.5,0],[1,0.75,0]];outlineConnect=0;fontColor=#232F3E;gradientColor=#60A337;gradientDirection=north;fillColor=#277116;strokeColor=#ffffff;dashed=0;verticalLabelPosition=bottom;verticalAlign=top;align=center;html=1;fontSize=12;fontStyle=0;aspect=fixed;shape=mxgraph.aws4.resourceIcon;resIcon=mxgraph.aws4.iot_core;" parent="1" vertex="1">
          <mxGeometry x="220" y="160" width="78" height="78" as="geometry" />
        </mxCell>
        <mxCell id="qOsiP7DexmNMQrKXQggl-34" value="AWS IoT Core" style="text;strokeColor=none;align=center;fillColor=none;html=1;verticalAlign=middle;whiteSpace=wrap;rounded=0;fontStyle=1" parent="1" vertex="1">
          <mxGeometry x="229" y="240" width="60" height="30" as="geometry" />
        </mxCell>
        <mxCell id="qOsiP7DexmNMQrKXQggl-36" value="" style="sketch=0;points=[[0,0,0],[0.25,0,0],[0.5,0,0],[0.75,0,0],[1,0,0],[0,1,0],[0.25,1,0],[0.5,1,0],[0.75,1,0],[1,1,0],[0,0.25,0],[0,0.5,0],[0,0.75,0],[1,0.25,0],[1,0.5,0],[1,0.75,0]];outlineConnect=0;fontColor=#232F3E;gradientColor=#4D72F3;gradientDirection=north;fillColor=#3334B9;strokeColor=#ffffff;dashed=0;verticalLabelPosition=bottom;verticalAlign=top;align=center;html=1;fontSize=12;fontStyle=0;aspect=fixed;shape=mxgraph.aws4.resourceIcon;resIcon=mxgraph.aws4.database_migration_service;" parent="1" vertex="1">
          <mxGeometry x="220" y="272" width="78" height="78" as="geometry" />
        </mxCell>
        <mxCell id="qOsiP7DexmNMQrKXQggl-37" value="AWS Database Migration Service (DMS)" style="text;strokeColor=none;align=center;fillColor=none;html=1;verticalAlign=middle;whiteSpace=wrap;rounded=0;fontStyle=1" parent="1" vertex="1">
          <mxGeometry x="209" y="370" width="100" height="30" as="geometry" />
        </mxCell>
        <mxCell id="qOsiP7DexmNMQrKXQggl-39" value="" style="sketch=0;points=[[0,0,0],[0.25,0,0],[0.5,0,0],[0.75,0,0],[1,0,0],[0,1,0],[0.25,1,0],[0.5,1,0],[0.75,1,0],[1,1,0],[0,0.25,0],[0,0.5,0],[0,0.75,0],[1,0.25,0],[1,0.5,0],[1,0.75,0]];outlineConnect=0;fontColor=#232F3E;gradientColor=#945DF2;gradientDirection=north;fillColor=#5A30B5;strokeColor=#ffffff;dashed=0;verticalLabelPosition=bottom;verticalAlign=top;align=center;html=1;fontSize=12;fontStyle=0;aspect=fixed;shape=mxgraph.aws4.resourceIcon;resIcon=mxgraph.aws4.glue;" parent="1" vertex="1">
          <mxGeometry x="220" y="412" width="78" height="78" as="geometry" />
        </mxCell>
        <mxCell id="qOsiP7DexmNMQrKXQggl-40" value="AWS Glue" style="text;strokeColor=none;align=center;fillColor=none;html=1;verticalAlign=middle;whiteSpace=wrap;rounded=0;fontStyle=1" parent="1" vertex="1">
          <mxGeometry x="235" y="490" width="60" height="30" as="geometry" />
        </mxCell>
        <mxCell id="qOsiP7DexmNMQrKXQggl-43" value="" style="rounded=0;whiteSpace=wrap;html=1;" parent="1" vertex="1">
          <mxGeometry x="360" y="390" width="490" height="130" as="geometry" />
        </mxCell>
        <mxCell id="qOsiP7DexmNMQrKXQggl-44" value="" style="sketch=0;points=[[0,0,0],[0.25,0,0],[0.5,0,0],[0.75,0,0],[1,0,0],[0,1,0],[0.25,1,0],[0.5,1,0],[0.75,1,0],[1,1,0],[0,0.25,0],[0,0.5,0],[0,0.75,0],[1,0.25,0],[1,0.5,0],[1,0.75,0]];outlineConnect=0;fontColor=#232F3E;gradientColor=#945DF2;gradientDirection=north;fillColor=#5A30B5;strokeColor=#ffffff;dashed=0;verticalLabelPosition=bottom;verticalAlign=top;align=center;html=1;fontSize=12;fontStyle=0;aspect=fixed;shape=mxgraph.aws4.resourceIcon;resIcon=mxgraph.aws4.vpc;" parent="1" vertex="1">
          <mxGeometry x="385" y="432.5" width="50" height="50" as="geometry" />
        </mxCell>
        <mxCell id="qOsiP7DexmNMQrKXQggl-45" value="Amazon VPC" style="text;strokeColor=none;align=center;fillColor=none;html=1;verticalAlign=middle;whiteSpace=wrap;rounded=0;fontStyle=1" parent="1" vertex="1">
          <mxGeometry x="385" y="490" width="60" height="30" as="geometry" />
        </mxCell>
        <mxCell id="qOsiP7DexmNMQrKXQggl-46" value="" style="sketch=0;points=[[0,0,0],[0.25,0,0],[0.5,0,0],[0.75,0,0],[1,0,0],[0,1,0],[0.25,1,0],[0.5,1,0],[0.75,1,0],[1,1,0],[0,0.25,0],[0,0.5,0],[0,0.75,0],[1,0.25,0],[1,0.5,0],[1,0.75,0]];points=[[0,0,0],[0.25,0,0],[0.5,0,0],[0.75,0,0],[1,0,0],[0,1,0],[0.25,1,0],[0.5,1,0],[0.75,1,0],[1,1,0],[0,0.25,0],[0,0.5,0],[0,0.75,0],[1,0.25,0],[1,0.5,0],[1,0.75,0]];outlineConnect=0;fontColor=#232F3E;gradientColor=#F34482;gradientDirection=north;fillColor=#BC1356;strokeColor=#ffffff;dashed=0;verticalLabelPosition=bottom;verticalAlign=top;align=center;html=1;fontSize=12;fontStyle=0;aspect=fixed;shape=mxgraph.aws4.resourceIcon;resIcon=mxgraph.aws4.cloudwatch_2;" parent="1" vertex="1">
          <mxGeometry x="500" y="431" width="53" height="53" as="geometry" />
        </mxCell>
        <mxCell id="qOsiP7DexmNMQrKXQggl-47" value="CloudWatch" style="text;strokeColor=none;align=center;fillColor=none;html=1;verticalAlign=middle;whiteSpace=wrap;rounded=0;fontStyle=1" parent="1" vertex="1">
          <mxGeometry x="500" y="490" width="60" height="30" as="geometry" />
        </mxCell>
        <mxCell id="qOsiP7DexmNMQrKXQggl-48" value="" style="sketch=0;points=[[0,0,0],[0.25,0,0],[0.5,0,0],[0.75,0,0],[1,0,0],[0,1,0],[0.25,1,0],[0.5,1,0],[0.75,1,0],[1,1,0],[0,0.25,0],[0,0.5,0],[0,0.75,0],[1,0.25,0],[1,0.5,0],[1,0.75,0]];outlineConnect=0;fontColor=#232F3E;gradientColor=#F54749;gradientDirection=north;fillColor=#C7131F;strokeColor=#ffffff;dashed=0;verticalLabelPosition=bottom;verticalAlign=top;align=center;html=1;fontSize=12;fontStyle=0;aspect=fixed;shape=mxgraph.aws4.resourceIcon;resIcon=mxgraph.aws4.identity_and_access_management;" parent="1" vertex="1">
          <mxGeometry x="445" y="436" width="43" height="43" as="geometry" />
        </mxCell>
        <mxCell id="qOsiP7DexmNMQrKXQggl-51" value="aws &lt;br&gt;IAM" style="text;strokeColor=none;align=center;fillColor=none;html=1;verticalAlign=middle;whiteSpace=wrap;rounded=0;fontStyle=1" parent="1" vertex="1">
          <mxGeometry x="440" y="484" width="60" height="30" as="geometry" />
        </mxCell>
        <mxCell id="qOsiP7DexmNMQrKXQggl-52" value="" style="sketch=0;points=[[0,0,0],[0.25,0,0],[0.5,0,0],[0.75,0,0],[1,0,0],[0,1,0],[0.25,1,0],[0.5,1,0],[0.75,1,0],[1,1,0],[0,0.25,0],[0,0.5,0],[0,0.75,0],[1,0.25,0],[1,0.5,0],[1,0.75,0]];outlineConnect=0;fontColor=#232F3E;gradientColor=#F54749;gradientDirection=north;fillColor=#C7131F;strokeColor=#ffffff;dashed=0;verticalLabelPosition=bottom;verticalAlign=top;align=center;html=1;fontSize=12;fontStyle=0;aspect=fixed;shape=mxgraph.aws4.resourceIcon;resIcon=mxgraph.aws4.key_management_service;" parent="1" vertex="1">
          <mxGeometry x="570" y="428.5" width="58" height="58" as="geometry" />
        </mxCell>
        <mxCell id="qOsiP7DexmNMQrKXQggl-53" value="AWS &lt;br&gt;KMS" style="text;strokeColor=none;align=center;fillColor=none;html=1;verticalAlign=middle;whiteSpace=wrap;rounded=0;fontStyle=1" parent="1" vertex="1">
          <mxGeometry x="568" y="486.5" width="60" height="30" as="geometry" />
        </mxCell>
        <mxCell id="qOsiP7DexmNMQrKXQggl-54" value="" style="sketch=0;points=[[0,0,0],[0.25,0,0],[0.5,0,0],[0.75,0,0],[1,0,0],[0,1,0],[0.25,1,0],[0.5,1,0],[0.75,1,0],[1,1,0],[0,0.25,0],[0,0.5,0],[0,0.75,0],[1,0.25,0],[1,0.5,0],[1,0.75,0]];points=[[0,0,0],[0.25,0,0],[0.5,0,0],[0.75,0,0],[1,0,0],[0,1,0],[0.25,1,0],[0.5,1,0],[0.75,1,0],[1,1,0],[0,0.25,0],[0,0.5,0],[0,0.75,0],[1,0.25,0],[1,0.5,0],[1,0.75,0]];outlineConnect=0;fontColor=#232F3E;gradientColor=#F34482;gradientDirection=north;fillColor=#BC1356;strokeColor=#ffffff;dashed=0;verticalLabelPosition=bottom;verticalAlign=top;align=center;html=1;fontSize=12;fontStyle=0;aspect=fixed;shape=mxgraph.aws4.resourceIcon;resIcon=mxgraph.aws4.cloudtrail;" parent="1" vertex="1">
          <mxGeometry x="640" y="431" width="58" height="58" as="geometry" />
        </mxCell>
        <mxCell id="qOsiP7DexmNMQrKXQggl-55" value="AWS CloudTrail" style="text;strokeColor=none;align=center;fillColor=none;html=1;verticalAlign=middle;whiteSpace=wrap;rounded=0;fontStyle=1" parent="1" vertex="1">
          <mxGeometry x="640" y="484" width="60" height="30" as="geometry" />
        </mxCell>
        <mxCell id="qOsiP7DexmNMQrKXQggl-56" value="Security &amp;amp; Monitoring" style="text;strokeColor=none;align=center;fillColor=none;html=1;verticalAlign=middle;whiteSpace=wrap;rounded=0;fontStyle=1;fontSize=16;" parent="1" vertex="1">
          <mxGeometry x="520" y="395" width="210" height="30" as="geometry" />
        </mxCell>
        <mxCell id="qOsiP7DexmNMQrKXQggl-57" value="" style="sketch=0;points=[[0,0,0],[0.25,0,0],[0.5,0,0],[0.75,0,0],[1,0,0],[0,1,0],[0.25,1,0],[0.5,1,0],[0.75,1,0],[1,1,0],[0,0.25,0],[0,0.5,0],[0,0.75,0],[1,0.25,0],[1,0.5,0],[1,0.75,0]];outlineConnect=0;fontColor=#232F3E;gradientColor=#F54749;gradientDirection=north;fillColor=#C7131F;strokeColor=#ffffff;dashed=0;verticalLabelPosition=bottom;verticalAlign=top;align=center;html=1;fontSize=12;fontStyle=0;aspect=fixed;shape=mxgraph.aws4.resourceIcon;resIcon=mxgraph.aws4.macie;" parent="1" vertex="1">
          <mxGeometry x="710" y="430" width="50.5" height="50.5" as="geometry" />
        </mxCell>
        <mxCell id="qOsiP7DexmNMQrKXQggl-58" value="Amazon Macie" style="text;strokeColor=none;align=center;fillColor=none;html=1;verticalAlign=middle;whiteSpace=wrap;rounded=0;fontStyle=1" parent="1" vertex="1">
          <mxGeometry x="705.25" y="484" width="60" height="30" as="geometry" />
        </mxCell>
        <mxCell id="bFwccWIXfFiB8wJEmlYg-14" value="" style="edgeStyle=orthogonalEdgeStyle;rounded=0;orthogonalLoop=1;jettySize=auto;html=1;" parent="1" source="qOsiP7DexmNMQrKXQggl-59" target="qOsiP7DexmNMQrKXQggl-62" edge="1">
          <mxGeometry relative="1" as="geometry">
            <Array as="points">
              <mxPoint x="854" y="454" />
              <mxPoint x="854" y="440" />
            </Array>
          </mxGeometry>
        </mxCell>
        <mxCell id="qOsiP7DexmNMQrKXQggl-59" value="" style="sketch=0;points=[[0,0,0],[0.25,0,0],[0.5,0,0],[0.75,0,0],[1,0,0],[0,1,0],[0.25,1,0],[0.5,1,0],[0.75,1,0],[1,1,0],[0,0.25,0],[0,0.5,0],[0,0.75,0],[1,0.25,0],[1,0.5,0],[1,0.75,0]];outlineConnect=0;fontColor=#232F3E;gradientColor=#945DF2;gradientDirection=north;fillColor=#5A30B5;strokeColor=#ffffff;dashed=0;verticalLabelPosition=bottom;verticalAlign=top;align=center;html=1;fontSize=12;fontStyle=0;aspect=fixed;shape=mxgraph.aws4.resourceIcon;resIcon=mxgraph.aws4.lake_formation;" parent="1" vertex="1">
          <mxGeometry x="770" y="425" width="58" height="58" as="geometry" />
        </mxCell>
        <mxCell id="qOsiP7DexmNMQrKXQggl-60" value="amazon lake formation" style="text;strokeColor=none;align=center;fillColor=none;html=1;verticalAlign=middle;whiteSpace=wrap;rounded=0;fontStyle=1" parent="1" vertex="1">
          <mxGeometry x="770" y="486.5" width="60" height="30" as="geometry" />
        </mxCell>
        <mxCell id="qOsiP7DexmNMQrKXQggl-61" value="Consumption" style="shape=table;startSize=30;container=1;collapsible=0;childLayout=tableLayout;fontStyle=1" parent="1" vertex="1">
          <mxGeometry x="880" y="120" width="120" height="400" as="geometry" />
        </mxCell>
        <mxCell id="qOsiP7DexmNMQrKXQggl-62" value="" style="shape=tableRow;horizontal=0;startSize=0;swimlaneHead=0;swimlaneBody=0;strokeColor=inherit;top=0;left=0;bottom=0;right=0;collapsible=0;dropTarget=0;fillColor=none;points=[[0,0.5],[1,0.5]];portConstraint=eastwest;" parent="qOsiP7DexmNMQrKXQggl-61" vertex="1">
          <mxGeometry y="30" width="120" height="370" as="geometry" />
        </mxCell>
        <mxCell id="qOsiP7DexmNMQrKXQggl-63" value="" style="shape=partialRectangle;html=1;whiteSpace=wrap;connectable=0;strokeColor=inherit;overflow=hidden;fillColor=none;top=0;left=0;bottom=0;right=0;pointerEvents=1;" parent="qOsiP7DexmNMQrKXQggl-62" vertex="1">
          <mxGeometry width="120" height="370" as="geometry">
            <mxRectangle width="120" height="370" as="alternateBounds" />
          </mxGeometry>
        </mxCell>
        <mxCell id="qOsiP7DexmNMQrKXQggl-67" value="&lt;b&gt;AWS Lake Formation&lt;/b&gt;: Data lake storage, cataloging, and processing" style="text;strokeColor=none;align=left;fillColor=none;html=1;verticalAlign=middle;whiteSpace=wrap;rounded=0;" parent="1" vertex="1">
          <mxGeometry x="410" y="130" width="420" height="30" as="geometry" />
        </mxCell>
        <mxCell id="qOsiP7DexmNMQrKXQggl-68" value="" style="sketch=0;points=[[0,0,0],[0.25,0,0],[0.5,0,0],[0.75,0,0],[1,0,0],[0,1,0],[0.25,1,0],[0.5,1,0],[0.75,1,0],[1,1,0],[0,0.25,0],[0,0.5,0],[0,0.75,0],[1,0.25,0],[1,0.5,0],[1,0.75,0]];outlineConnect=0;fontColor=#232F3E;gradientColor=#945DF2;gradientDirection=north;fillColor=#5A30B5;strokeColor=#ffffff;dashed=0;verticalLabelPosition=bottom;verticalAlign=top;align=center;html=1;fontSize=12;fontStyle=0;aspect=fixed;shape=mxgraph.aws4.resourceIcon;resIcon=mxgraph.aws4.lake_formation;" parent="1" vertex="1">
          <mxGeometry x="360" y="121" width="48" height="48" as="geometry" />
        </mxCell>
        <mxCell id="qOsiP7DexmNMQrKXQggl-69" value="" style="sketch=0;points=[[0,0,0],[0.25,0,0],[0.5,0,0],[0.75,0,0],[1,0,0],[0,1,0],[0.25,1,0],[0.5,1,0],[0.75,1,0],[1,1,0],[0,0.25,0],[0,0.5,0],[0,0.75,0],[1,0.25,0],[1,0.5,0],[1,0.75,0]];outlineConnect=0;fontColor=#232F3E;gradientColor=#945DF2;gradientDirection=north;fillColor=#5A30B5;strokeColor=#ffffff;dashed=0;verticalLabelPosition=bottom;verticalAlign=top;align=center;html=1;fontSize=12;fontStyle=0;aspect=fixed;shape=mxgraph.aws4.resourceIcon;resIcon=mxgraph.aws4.athena;" parent="1" vertex="1">
          <mxGeometry x="909.75" y="150" width="64" height="64" as="geometry" />
        </mxCell>
        <mxCell id="qOsiP7DexmNMQrKXQggl-70" value="Amazon Athena" style="text;strokeColor=none;align=center;fillColor=none;html=1;verticalAlign=middle;whiteSpace=wrap;rounded=0;fontStyle=1" parent="1" vertex="1">
          <mxGeometry x="915.5" y="214" width="60" height="30" as="geometry" />
        </mxCell>
        <mxCell id="qOsiP7DexmNMQrKXQggl-71" value="" style="outlineConnect=0;dashed=0;verticalLabelPosition=bottom;verticalAlign=top;align=center;html=1;shape=mxgraph.aws3.redshift;fillColor=#2E73B8;gradientColor=none;" parent="1" vertex="1">
          <mxGeometry x="911.75" y="380" width="67.5" height="75" as="geometry" />
        </mxCell>
        <mxCell id="qOsiP7DexmNMQrKXQggl-72" value="Amazon Redshift&lt;span style=&quot;color: rgb(55, 65, 81); font-family: Söhne, ui-sans-serif, system-ui, -apple-system, &amp;quot;Segoe UI&amp;quot;, Roboto, Ubuntu, Cantarell, &amp;quot;Noto Sans&amp;quot;, sans-serif, &amp;quot;Helvetica Neue&amp;quot;, Arial, &amp;quot;Apple Color Emoji&amp;quot;, &amp;quot;Segoe UI Emoji&amp;quot;, &amp;quot;Segoe UI Symbol&amp;quot;, &amp;quot;Noto Color Emoji&amp;quot;; font-size: 16px; text-align: left; background-color: rgb(247, 247, 248);&quot;&gt;:&lt;/span&gt;" style="text;strokeColor=none;align=center;fillColor=none;html=1;verticalAlign=middle;whiteSpace=wrap;rounded=0;fontStyle=1" parent="1" vertex="1">
          <mxGeometry x="911.75" y="432.5" width="60" height="30" as="geometry" />
        </mxCell>
        <mxCell id="qOsiP7DexmNMQrKXQggl-73" value="" style="outlineConnect=0;dashed=0;verticalLabelPosition=bottom;verticalAlign=top;align=center;html=1;shape=mxgraph.aws3.quicksight;fillColor=#00B7F4;gradientColor=none;" parent="1" vertex="1">
          <mxGeometry x="568" y="300" width="40" height="35" as="geometry" />
        </mxCell>
        <mxCell id="qOsiP7DexmNMQrKXQggl-74" value="Amazon QuickSight" style="text;strokeColor=none;align=center;fillColor=none;html=1;verticalAlign=middle;whiteSpace=wrap;rounded=0;fontStyle=1" parent="1" vertex="1">
          <mxGeometry x="553" y="270" width="60" height="30" as="geometry" />
        </mxCell>
        <mxCell id="bFwccWIXfFiB8wJEmlYg-46" value="" style="edgeStyle=orthogonalEdgeStyle;rounded=0;orthogonalLoop=1;jettySize=auto;html=1;" parent="1" source="bFwccWIXfFiB8wJEmlYg-4" target="bFwccWIXfFiB8wJEmlYg-35" edge="1">
          <mxGeometry relative="1" as="geometry" />
        </mxCell>
        <mxCell id="bFwccWIXfFiB8wJEmlYg-4" value="" style="sketch=0;points=[[0,0,0],[0.25,0,0],[0.5,0,0],[0.75,0,0],[1,0,0],[0,1,0],[0.25,1,0],[0.5,1,0],[0.75,1,0],[1,1,0],[0,0.25,0],[0,0.5,0],[0,0.75,0],[1,0.25,0],[1,0.5,0],[1,0.75,0]];outlineConnect=0;fontColor=#232F3E;gradientColor=#60A337;gradientDirection=north;fillColor=#277116;strokeColor=#ffffff;dashed=0;verticalLabelPosition=bottom;verticalAlign=top;align=center;html=1;fontSize=12;fontStyle=0;aspect=fixed;shape=mxgraph.aws4.resourceIcon;resIcon=mxgraph.aws4.s3;" parent="1" vertex="1">
          <mxGeometry x="400" y="230" width="65" height="65" as="geometry" />
        </mxCell>
        <mxCell id="bFwccWIXfFiB8wJEmlYg-5" value="Curated data" style="text;strokeColor=none;align=center;fillColor=none;html=1;verticalAlign=middle;whiteSpace=wrap;rounded=0;fontStyle=1" parent="1" vertex="1">
          <mxGeometry x="763" y="302.5" width="60" height="35" as="geometry" />
        </mxCell>
        <mxCell id="bFwccWIXfFiB8wJEmlYg-48" value="" style="edgeStyle=orthogonalEdgeStyle;rounded=0;orthogonalLoop=1;jettySize=auto;html=1;" parent="1" source="bFwccWIXfFiB8wJEmlYg-24" target="bFwccWIXfFiB8wJEmlYg-35" edge="1">
          <mxGeometry relative="1" as="geometry" />
        </mxCell>
        <mxCell id="bFwccWIXfFiB8wJEmlYg-24" value="" style="outlineConnect=0;dashed=0;verticalLabelPosition=bottom;verticalAlign=top;align=center;html=1;shape=mxgraph.aws3.emr;fillColor=#F58534;gradientColor=none;" parent="1" vertex="1">
          <mxGeometry x="575" y="169" width="27.5" height="49" as="geometry" />
        </mxCell>
        <mxCell id="bFwccWIXfFiB8wJEmlYg-31" value="" style="edgeStyle=orthogonalEdgeStyle;rounded=0;orthogonalLoop=1;jettySize=auto;html=1;entryX=0;entryY=0.75;entryDx=0;entryDy=0;entryPerimeter=0;" parent="1" source="qOsiP7DexmNMQrKXQggl-31" target="bFwccWIXfFiB8wJEmlYg-4" edge="1">
          <mxGeometry relative="1" as="geometry" />
        </mxCell>
        <mxCell id="bFwccWIXfFiB8wJEmlYg-34" value="EMR" style="text;strokeColor=none;align=center;fillColor=none;html=1;verticalAlign=middle;whiteSpace=wrap;rounded=0;fontStyle=1" parent="1" vertex="1">
          <mxGeometry x="558.75" y="150" width="60" height="30" as="geometry" />
        </mxCell>
        <mxCell id="bFwccWIXfFiB8wJEmlYg-49" value="" style="edgeStyle=orthogonalEdgeStyle;rounded=0;orthogonalLoop=1;jettySize=auto;html=1;" parent="1" source="bFwccWIXfFiB8wJEmlYg-35" target="bFwccWIXfFiB8wJEmlYg-36" edge="1">
          <mxGeometry relative="1" as="geometry" />
        </mxCell>
        <mxCell id="bFwccWIXfFiB8wJEmlYg-35" value="Data Transformation and Processing" style="text;strokeColor=none;align=center;fillColor=none;html=1;verticalAlign=middle;whiteSpace=wrap;rounded=0;" parent="1" vertex="1">
          <mxGeometry x="530" y="224" width="132.5" height="30" as="geometry" />
        </mxCell>
        <mxCell id="bFwccWIXfFiB8wJEmlYg-43" value="" style="edgeStyle=orthogonalEdgeStyle;rounded=0;orthogonalLoop=1;jettySize=auto;html=1;" parent="1" source="bFwccWIXfFiB8wJEmlYg-36" target="qOsiP7DexmNMQrKXQggl-70" edge="1">
          <mxGeometry relative="1" as="geometry" />
        </mxCell>
        <mxCell id="bFwccWIXfFiB8wJEmlYg-36" value="" style="sketch=0;points=[[0,0,0],[0.25,0,0],[0.5,0,0],[0.75,0,0],[1,0,0],[0,1,0],[0.25,1,0],[0.5,1,0],[0.75,1,0],[1,1,0],[0,0.25,0],[0,0.5,0],[0,0.75,0],[1,0.25,0],[1,0.5,0],[1,0.75,0]];outlineConnect=0;fontColor=#232F3E;gradientColor=#60A337;gradientDirection=north;fillColor=#277116;strokeColor=#ffffff;dashed=0;verticalLabelPosition=bottom;verticalAlign=top;align=center;html=1;fontSize=12;fontStyle=0;aspect=fixed;shape=mxgraph.aws4.resourceIcon;resIcon=mxgraph.aws4.s3;" parent="1" vertex="1">
          <mxGeometry x="760.5" y="230" width="65" height="65" as="geometry" />
        </mxCell>
        <mxCell id="bFwccWIXfFiB8wJEmlYg-38" value="Data Visualization and Reporting" style="text;strokeColor=none;align=center;fillColor=none;html=1;verticalAlign=middle;whiteSpace=wrap;rounded=0;" parent="1" vertex="1">
          <mxGeometry x="530" y="345" width="120" height="30" as="geometry" />
        </mxCell>
        <mxCell id="bFwccWIXfFiB8wJEmlYg-40" value="Landing data" style="text;strokeColor=none;align=center;fillColor=none;html=1;verticalAlign=middle;whiteSpace=wrap;rounded=0;fontStyle=1" parent="1" vertex="1">
          <mxGeometry x="390" y="310" width="60" height="35" as="geometry" />
        </mxCell>
        <mxCell id="bFwccWIXfFiB8wJEmlYg-44" value="" style="edgeStyle=orthogonalEdgeStyle;rounded=0;orthogonalLoop=1;jettySize=auto;html=1;entryX=0;entryY=0.5;entryDx=0;entryDy=0;entryPerimeter=0;" parent="1" source="qOsiP7DexmNMQrKXQggl-65" target="qOsiP7DexmNMQrKXQggl-71" edge="1">
          <mxGeometry relative="1" as="geometry" />
        </mxCell>
        <mxCell id="bFwccWIXfFiB8wJEmlYg-50" value="" style="sketch=0;outlineConnect=0;fontColor=#232F3E;gradientColor=none;fillColor=#4D27AA;strokeColor=none;dashed=0;verticalLabelPosition=bottom;verticalAlign=top;align=center;html=1;fontSize=12;fontStyle=0;aspect=fixed;pointerEvents=1;shape=mxgraph.aws4.glue_data_catalog;" parent="1" vertex="1">
          <mxGeometry x="498" y="253.67000000000002" width="52" height="56.33" as="geometry" />
        </mxCell>
      </root>
    </mxGraphModel>
  </diagram>
</mxfile>
